{"title":"Undiscovered Tomb (2002) DVDrip x264 [Hindi] XdesiArsenal [ExDRS","uid":9277185,"size":640414881,"categoryP":"video","categoryS":"hd___movies","magnet":"?xt=urn:btih:5d554609f874aeb55e8fcbbca1140ba80978ade3&amp;dn=Undiscovered+Tomb+%282002%29+DVDrip+x264+%5BHindi%5D+XdesiArsenal+%5BExDRS&amp;tr=udp%3A%2F%2Ftracker.openbittorrent.com%3A80&amp;tr=udp%3A%2F%2Fopen.demonii.com%3A1337&amp;tr=udp%3A%2F%2Ftracker.coppersurfer.tk%3A6969&amp;tr=udp%3A%2F%2Fexodus.desync.com%3A6969","seeders":1,"leechers":0,"uploader":"Xdesiars","files":2,"time":1385883239,"description":"Format                                   : Matroska\nFormat version                           : Version 4 / Version 2\nFile size                                : 604 MiB\nDuration                                 : 1h 30mn\nOverall bit rate                         : 929 Kbps\nMovie name                               : Undiscovered Tomb (2002) by XdesiArsenal\nEncoded date                             : UTC 2013-12-01 05:57:20\nWriting application                      : mkvmerge v6.4.1 ('Omega Point') built on Sep 16 2013 22:05:10\nWriting library                          : libebml v1.3.0 + libmatroska v1.4.1\n\nVideo\nID                                       : 1\nFormat                                   : AVC\nFormat/Info                              : Advanced Video Codec\nFormat profile                           : &lt;a class=&quot;__cf_email__&quot; href=&quot;/cdn-cgi/l/email-protection&quot; data-cfemail=&quot;41032032242d282f24010d726f71&quot;&gt;[email&amp;#160;protected]&lt;/a&gt;&lt;script cf-hash='f9e31' type=&quot;text/javascript&quot;&gt;\n/* &lt;![CDATA[ */!function(){try{var t=&quot;currentScript&quot;in document?document.currentScript:function(){for(var t=document.getElementsByTagName(&quot;script&quot;),e=t.length;e--;)if(t[e].getAttribute(&quot;cf-hash&quot;))return t[e]}();if(t&amp;&amp;t.previousSibling){var e,r,n,i,c=t.previousSibling,a=c.getAttribute(&quot;data-cfemail&quot;);if(a){for(e=&quot;&quot;,r=parseInt(a.substr(0,2),16),n=2;a.length-n;n+=2)i=parseInt(a.substr(n,2),16)^r,e+=String.fromCharCode(i);e=document.createTextNode(e),c.parentNode.replaceChild(e,c)}}}catch(u){}}();/* ]]&gt; */&lt;/script&gt;\nFormat settings, CABAC                   : No\nFormat settings, ReFrames                : 3 frames\nCodec ID                                 : V_MPEG4/ISO/AVC\nDuration                                 : 1h 30mn\nBit rate                                 : 783 Kbps\nWidth                                    : 720 pixels\nHeight                                   : 420 pixels\nDisplay aspect ratio                     : 1.717\nFrame rate mode                          : Constant\nFrame rate                               : 25.000 fps\nColor space                              : YUV\nChroma subsampling                       : 4:2:0\nBit depth                                : 8 bits\nScan type                                : Progressive\nBits/(Pixel*Frame)                       : 0.104\nStream size                              : 508 MiB (84%)\nTitle                                    : Undiscovered Tomb (2002) by XdesiArsenal\nDefault                                  : Yes\nForced                                   : No\n\nAudio\nID                                       : 2\nFormat                                   : MPEG Audio\nFormat version                           : Version 1\nFormat profile                           : Layer 3\nCodec ID                                 : A_MPEG/L3\nCodec ID/Hint                            : MP3\nDuration                                 : 1h 30mn\nBit rate mode                            : Constant\nBit rate                                 : 128 Kbps\nChannel(s)                               : 2 channels\nSampling rate                            : 44.1 KHz\nCompression mode                         : Lossy\nStream size                              : 83.1 MiB (14%)\nTitle                                    : XdesiArsenal\nLanguage                                 : Hindi\nDefault                                  : Yes\nForced                                   : No\n","torrent":{"xt":"urn:btih:5d554609f874aeb55e8fcbbca1140ba80978ade3","amp;dn":"Undiscovered+Tomb+%282002%29+DVDrip+x264+%5BHindi%5D+XdesiArsenal+%5BExDRS","amp;tr":["udp%3A%2F%2Ftracker.openbittorrent.com%3A80","udp%3A%2F%2Fopen.demonii.com%3A1337","udp%3A%2F%2Ftracker.coppersurfer.tk%3A6969","udp%3A%2F%2Fexodus.desync.com%3A6969"],"infoHash":"5d554609f874aeb55e8fcbbca1140ba80978ade3","infoHashBuffer":{"type":"Buffer","data":[93,85,70,9,248,116,174,181,94,143,203,188,161,20,11,168,9,120,173,227]},"announce":[],"urlList":[]}}